<svg xmlns="http://www.w3.org/2000/svg" viewBox="0 0 512 512"><path fill="#ffa000" d="M511.5,256A255.51,255.51,0,0,1,75.33,436.67,255.51,255.51,0,0,1,436.67,75.33,253.86,253.86,0,0,1,511.5,256Z"/><rect width="74.92" height="224.78" x="218.54" y="93.2" fill="#fff"/><rect width="74.92" height="74.93" x="218.54" y="343.87" fill="#fff"/><path fill="#ea8500" d="M473.29,390.59a257.22,257.22,0,0,1-36.62,46.08A255.5,255.5,0,0,1,.5,256,253.57,253.57,0,0,1,59.71,92.41,255.77,255.77,0,0,0,96.33,407.67a255.52,255.52,0,0,0,361.34,0Q465.9,399.43,473.29,390.59Z"/><path fill="#fff" d="M478,261a5,5,0,0,1-5-5A217,217,0,0,0,256,39a5,5,0,0,1,0-10A227,227,0,0,1,483,256,5,5,0,0,1,478,261Z" opacity=".5"/></svg>